# xmcd
#
# Track frame offsets: 
#        150
#        14062
#        31524
#        44669
#        70812
#        80781
#        93803
#        102624
#        114889
#        125922
#        138241
#        149096
#        175976
#
# Disc length: 2750 seconds
#
# Revision: 0
# Processed by: cddbd v1.5.2PL0 Copyright (c) Steve Scherf et al.
# Submitted via: ExactAudioCopy v0.95b3
#
DISCID=bd0abc0d
DTITLE=The Mops  - Psychedelic Sounds In Japan - 1968  
DYEAR=1900
DGENRE=
TTITLE0=Asamade Matenai
TTITLE1=San Franciscan Nights
TTITLE2=I Am Just A Mops
TTITLE3=Inside Looking Out
TTITLE4=The Letter
TTITLE5=Kienai Omoi
TTITLE6=Omae No Subete Wo
TTITLE7=Somebody To Love
TTITLE8=Bera Yo Isoge
TTITLE9=White Rabbit
TTITLE10=Asahi Yo Saraba
TTITLE11=Light My Fire
TTITLE12=Atsuku Narenai
EXTD=
EXTT0=
EXTT1=
EXTT2=
EXTT3=
EXTT4=
EXTT5=
EXTT6=
EXTT7=
EXTT8=
EXTT9=
EXTT10=
EXTT11=
EXTT12=
PLAYORDER=
